REM DIRINDEX 1\5,1\2\6,1\2\7,1\3\8,1\3\9,1\4\10,1\4\11,1\4\12
REM DIRNAME cjc026,folder01,folder02,folder03,folder04,folder05,folder06,folder07,folder08,folder09,folder10,folder11
TITLE ""
FILE "EJE_DB3000_5th_5C_03.mp3" MP3
  TRACK 01 AUDIO
    TITLE "0:"
    INDEX 01 00:00:00
  TRACK 02 AUDIO
    TITLE "10:cjc026_10197"
    INDEX 01 00:00:08
  TRACK 03 AUDIO
    TITLE "0:"
    INDEX 01 00:01:14
  TRACK 04 AUDIO
    TITLE "11:cjc026_10198"
    INDEX 01 00:01:51
  TRACK 05 AUDIO
    TITLE "0:"
    INDEX 01 00:02:68
  TRACK 06 AUDIO
    TITLE "12:cjc026_10199"
    INDEX 01 00:03:28
  TRACK 07 AUDIO
    TITLE "0:"
    INDEX 01 00:04:37
  TRACK 08 AUDIO
    TITLE "10:cjc026_10200"
    INDEX 01 00:04:72
  TRACK 09 AUDIO
    TITLE "0:"
    INDEX 01 00:06:19
  TRACK 10 AUDIO
    TITLE "11:cjc026_10201"
    INDEX 01 00:06:54
  TRACK 11 AUDIO
    TITLE "0:"
    INDEX 01 00:08:02
  TRACK 12 AUDIO
    TITLE "12:cjc026_10202"
    INDEX 01 00:08:37
  TRACK 13 AUDIO
    TITLE "0:"
    INDEX 01 00:09:59
  TRACK 14 AUDIO
    TITLE "10:cjc026_10203"
    INDEX 01 00:10:22
  TRACK 15 AUDIO
    TITLE "0:"
    INDEX 01 00:11:47
  TRACK 16 AUDIO
    TITLE "11:cjc026_10204"
    INDEX 01 00:12:04
  TRACK 17 AUDIO
    TITLE "0:"
    INDEX 01 00:13:37
  TRACK 18 AUDIO
    TITLE "12:cjc026_10205"
    INDEX 01 00:13:72
  TRACK 19 AUDIO
    TITLE "0:"
    INDEX 01 00:15:25
  TRACK 20 AUDIO
    TITLE "10:cjc026_10206"
    INDEX 01 00:15:57
  TRACK 21 AUDIO
    TITLE "0:"
    INDEX 01 00:17:10
  TRACK 22 AUDIO
    TITLE "11:cjc026_10207"
    INDEX 01 00:17:48
  TRACK 23 AUDIO
    TITLE "0:"
    INDEX 01 00:19:00
  TRACK 24 AUDIO
    TITLE "12:cjc026_10208"
    INDEX 01 00:19:35
  TRACK 25 AUDIO
    TITLE "0:"
    INDEX 01 00:20:63
  TRACK 26 AUDIO
    TITLE "10:cjc026_10209"
    INDEX 01 00:21:23
  TRACK 27 AUDIO
    TITLE "0:"
    INDEX 01 00:22:40
  TRACK 28 AUDIO
    TITLE "11:cjc026_10210"
    INDEX 01 00:23:05
  TRACK 29 AUDIO
    TITLE "0:"
    INDEX 01 00:24:36
  TRACK 30 AUDIO
    TITLE "12:cjc026_10211"
    INDEX 01 00:24:71
  TRACK 31 AUDIO
    TITLE "0:"
    INDEX 01 00:26:15
  TRACK 32 AUDIO
    TITLE "10:cjc026_10212"
    INDEX 01 00:26:53
  TRACK 33 AUDIO
    TITLE "0:"
    INDEX 01 00:27:72
  TRACK 34 AUDIO
    TITLE "11:cjc026_10213"
    INDEX 01 00:28:33
  TRACK 35 AUDIO
    TITLE "0:"
    INDEX 01 00:29:60
  TRACK 36 AUDIO
    TITLE "12:cjc026_10214"
    INDEX 01 00:30:23
  TRACK 37 AUDIO
    TITLE "0:"
    INDEX 01 00:31:42
  TRACK 38 AUDIO
    TITLE "10:cjc026_10215"
    INDEX 01 00:32:03
  TRACK 39 AUDIO
    TITLE "0:"
    INDEX 01 00:33:14
  TRACK 40 AUDIO
    TITLE "11:cjc026_10216"
    INDEX 01 00:33:52
  TRACK 41 AUDIO
    TITLE "0:"
    INDEX 01 00:35:07
  TRACK 42 AUDIO
    TITLE "12:cjc026_10217"
    INDEX 01 00:35:45
  TRACK 43 AUDIO
    TITLE "0:"
    INDEX 01 00:36:59
  TRACK 44 AUDIO
    TITLE "10:cjc026_10218"
    INDEX 01 00:37:19
  TRACK 45 AUDIO
    TITLE "0:"
    INDEX 01 00:38:41
  TRACK 46 AUDIO
    TITLE "11:cjc026_10219"
    INDEX 01 00:39:04
  TRACK 47 AUDIO
    TITLE "0:"
    INDEX 01 00:40:42
  TRACK 48 AUDIO
    TITLE "12:cjc026_10220"
    INDEX 01 00:41:05
  TRACK 49 AUDIO
    TITLE "0:"
    INDEX 01 00:42:27
  TRACK 50 AUDIO
    TITLE "10:cjc026_10221"
    INDEX 01 00:42:65
  TRACK 51 AUDIO
    TITLE "0:"
    INDEX 01 00:44:04
  TRACK 52 AUDIO
    TITLE "11:cjc026_10222"
    INDEX 01 00:44:42
  TRACK 53 AUDIO
    TITLE "0:"
    INDEX 01 00:46:08
  TRACK 54 AUDIO
    TITLE "12:cjc026_10223"
    INDEX 01 00:46:41
  TRACK 55 AUDIO
    TITLE "0:"
    INDEX 01 00:47:55
  TRACK 56 AUDIO
    TITLE "10:cjc026_10224"
    INDEX 01 00:48:18
  TRACK 57 AUDIO
    TITLE "0:"
    INDEX 01 00:49:48
  TRACK 58 AUDIO
    TITLE "11:cjc026_10225"
    INDEX 01 00:50:08
  TRACK 59 AUDIO
    TITLE "0:"
    INDEX 01 00:51:27
  TRACK 60 AUDIO
    TITLE "12:cjc026_10226"
    INDEX 01 00:51:65
  TRACK 61 AUDIO
    TITLE "0:"
    INDEX 01 00:53:18
  TRACK 62 AUDIO
    TITLE "10:cjc026_10227"
    INDEX 01 00:53:56
  TRACK 63 AUDIO
    TITLE "0:"
    INDEX 01 00:54:67
  TRACK 64 AUDIO
    TITLE "11:cjc026_10228"
    INDEX 01 00:55:33
  TRACK 65 AUDIO
    TITLE "0:"
    INDEX 01 00:56:60
  TRACK 66 AUDIO
    TITLE "12:cjc026_10229"
    INDEX 01 00:57:23
  TRACK 67 AUDIO
    TITLE "0:"
    INDEX 01 00:58:37
  TRACK 68 AUDIO
    TITLE "10:cjc026_10230"
    INDEX 01 00:59:00
  TRACK 69 AUDIO
    TITLE "0:"
    INDEX 01 01:00:33
  TRACK 70 AUDIO
    TITLE "11:cjc026_10231"
    INDEX 01 01:00:71
  TRACK 71 AUDIO
    TITLE "0:"
    INDEX 01 01:02:37
  TRACK 72 AUDIO
    TITLE "12:cjc026_10232"
    INDEX 01 01:03:00
  TRACK 73 AUDIO
    TITLE "0:"
    INDEX 01 01:04:33
  TRACK 74 AUDIO
    TITLE "10:cjc026_10233"
    INDEX 01 01:04:70
  TRACK 75 AUDIO
    TITLE "0:"
    INDEX 01 01:06:23
  TRACK 76 AUDIO
    TITLE "11:cjc026_10234"
    INDEX 01 01:06:61
  TRACK 77 AUDIO
    TITLE "0:"
    INDEX 01 01:08:43
  TRACK 78 AUDIO
    TITLE "12:cjc026_10235"
    INDEX 01 01:09:00
  TRACK 79 AUDIO
    TITLE "0:"
    INDEX 01 01:10:31
  TRACK 80 AUDIO
    TITLE "10:cjc026_10236"
    INDEX 01 01:10:69
  TRACK 81 AUDIO
    TITLE "0:"
    INDEX 01 01:12:27
  TRACK 82 AUDIO
    TITLE "11:cjc026_10237"
    INDEX 01 01:12:64
  TRACK 83 AUDIO
    TITLE "0:"
    INDEX 01 01:14:14
  TRACK 84 AUDIO
    TITLE "12:cjc026_10238"
    INDEX 01 01:14:49
  TRACK 85 AUDIO
    TITLE "0:"
    INDEX 01 01:16:07
  TRACK 86 AUDIO
    TITLE "10:cjc026_10239"
    INDEX 01 01:16:48
  TRACK 87 AUDIO
    TITLE "0:"
    INDEX 01 01:17:70
  TRACK 88 AUDIO
    TITLE "11:cjc026_10240"
    INDEX 01 01:18:36
  TRACK 89 AUDIO
    TITLE "0:"
    INDEX 01 01:19:58
  TRACK 90 AUDIO
    TITLE "12:cjc026_10241"
    INDEX 01 01:20:18
  TRACK 91 AUDIO
    TITLE "0:"
    INDEX 01 01:21:43
